# xmcd CD database file
#
# Track frame offsets:
#	150
#	29560
#	47227
#	58572
#	79228
#	104947
#	118664
#	125224
#	139149
#	152112
#	167145
#	181434
#	189107
#	198143
#	217101
#	231961
#	243048
#	264385
#	276947
#	295051
#	302172
#	318481
#
# Disc length: 4437 seconds
#
# Revision: 2
# Processed by: cddbd v1.5.2PL0 Copyright (c) Steve Scherf et al.
# Submitted via: CDex 1.70beta2
#
DISCID=51115316
DTITLE=Compilation - X-Mix Project X 1995
DYEAR=1995
DGENRE=Dance
TTITLE0=The Bomb - Bucketheads
TTITLE1=Space Cowboy (part 1) - Jamiroquai 
TTITLE2=Space Cowboy (part 2) - Jamiroquai 
TTITLE3=Megamix - Technotronic
TTITLE4=Push The Feeling On - Nightcrawlers
TTITLE5=Set U Free (part 1) - Planet Soul
TTITLE6=Set U Free (part 2) - Planet Soul
TTITLE7=Set U Free (part 3) - Planet Soul
TTITLE8=Lucky Love (part 1) - Ace Of Base
TTITLE9=Lucky Love (part 2) - Ace Of Base
TTITLE10=Macarena Safety Dance (part 1) - Los del Rio
TTITLE11=Macarena Safety Dance (part 2) - Los del Rio
TTITLE12=Macarena Safety Dance (part 3) - Los del Rio
TTITLE13=Macarena Safety Dance (part 4) - Los del Rio
TTITLE14=The Eurohaus Of X - Fat Boy
TTITLE15=The Eurohaus Of X - Baby Baby
TTITLE16=The Eurohaus Of X - Close
TTITLE17=The Eurohaus Of X - In My Dreams
TTITLE18=Boom Boom Boom (part 1) - Outhere Brothers
TTITLE19=Boom Boom Boom (part 2) - Outhere Brothers
TTITLE20=Run To Me (part 1) - Double You
TTITLE21=Run To Me (part 2) - Double You
EXTD=YEAR: 1995
EXTT0=
EXTT1=
EXTT2=
EXTT3=
EXTT4=
EXTT5=
EXTT6=
EXTT7=
EXTT8=
EXTT9=
EXTT10=
EXTT11=
EXTT12=
EXTT13=
EXTT14=
EXTT15=
EXTT16=
EXTT17=
EXTT18=
EXTT19=
EXTT20=
EXTT21=
PLAYORDER=
